<svg width="1280" height="420" viewBox="0 0 1280 420" fill="none" xmlns="http://www.w3.org/2000/svg">
  <rect width="1280" height="420" rx="32" fill="#0F172A"/>
  <path d="M0 298C146 210 286 238 430 274C574 310 724 354 888 286C1052 218 1156 142 1280 168V420H0V298Z" fill="#0E7490" fill-opacity="0.42"/>
  <path d="M0 330C178 242 336 274 506 318C676 362 818 390 1000 284C1110 220 1190 208 1280 232V420H0V330Z" fill="#F59E0B" fill-opacity="0.22"/>
  <rect x="74" y="82" width="260" height="220" rx="30" fill="#F8FAFC"/>
  <rect x="94" y="102" width="220" height="180" rx="18" fill="#111827"/>
  <path d="M124 108V276" stroke="#F8FAFC" stroke-width="10" stroke-linecap="round" stroke-dasharray="12 17"/>
  <path d="M284 108V276" stroke="#F8FAFC" stroke-width="10" stroke-linecap="round" stroke-dasharray="12 17"/>
  <path d="M178 162L148 192L178 222" stroke="#38BDF8" stroke-width="16" stroke-linecap="round" stroke-linejoin="round"/>
  <path d="M230 162L260 192L230 222" stroke="#38BDF8" stroke-width="16" stroke-linecap="round" stroke-linejoin="round"/>
  <path d="M196 140L216 244" stroke="#F59E0B" stroke-width="16" stroke-linecap="round"/>
  <text x="390" y="165" fill="#F8FAFC" font-family="Inter, Arial, sans-serif" font-size="68" font-weight="800">ReelForge YAML</text>
  <text x="394" y="222" fill="#CBD5E1" font-family="Inter, Arial, sans-serif" font-size="30" font-weight="500">AI-assisted web-novel to vertical short-drama scripts</text>
  <text x="394" y="276" fill="#38BDF8" font-family="Inter, Arial, sans-serif" font-size="24" font-weight="700">Novel chapters → Episodes → Shots → YAML → Video-ready prompts</text>
  <rect x="394" y="306" width="176" height="42" rx="21" fill="#F59E0B"/>
  <text x="421" y="334" fill="#111827" font-family="Inter, Arial, sans-serif" font-size="20" font-weight="800">Schema-first</text>
  <rect x="590" y="306" width="178" height="42" rx="21" fill="#164E63"/>
  <text x="620" y="334" fill="#E0F2FE" font-family="Inter, Arial, sans-serif" font-size="20" font-weight="800">Source Map</text>
  <rect x="788" y="306" width="184" height="42" rx="21" fill="#1E293B"/>
  <text x="819" y="334" fill="#F8FAFC" font-family="Inter, Arial, sans-serif" font-size="20" font-weight="800">DeepSeek-ready</text>
</svg>
