<svg width="1280" height="420" viewBox="0 0 1280 420" fill="none" xmlns="http://www.w3.org/2000/svg">
  <defs>
    <linearGradient id="bg" x1="0" y1="0" x2="1280" y2="420" gradientUnits="userSpaceOnUse">
      <stop stop-color="#F8FAFC"/>
      <stop offset="1" stop-color="#E0F2FE"/>
    </linearGradient>
    <linearGradient id="accent" x1="88" y1="80" x2="340" y2="338" gradientUnits="userSpaceOnUse">
      <stop stop-color="#22D3EE"/>
      <stop offset="1" stop-color="#F59E0B"/>
    </linearGradient>
    <filter id="softShadow" x="42" y="42" width="376" height="376" filterUnits="userSpaceOnUse" color-interpolation-filters="sRGB">
      <feDropShadow dx="0" dy="18" stdDeviation="24" flood-color="#0F172A" flood-opacity="0.18"/>
    </filter>
  </defs>
  <rect width="1280" height="420" rx="34" fill="url(#bg)"/>
  <path d="M846 0H1280V420H706C812 354 873 268 884 188C895 108 875 44 846 0Z" fill="#0F172A"/>
  <path d="M878 420H1280V170C1196 160 1126 184 1050 246C974 308 940 364 878 420Z" fill="#164E63"/>
  <g filter="url(#softShadow)">
    <rect x="76" y="66" width="316" height="316" rx="68" fill="#0F172A"/>
    <rect x="101" y="91" width="266" height="266" rx="48" stroke="url(#accent)" stroke-width="10"/>
    <path d="M146 130V318" stroke="#E2E8F0" stroke-width="12" stroke-linecap="round" stroke-dasharray="16 22"/>
    <path d="M322 130V318" stroke="#E2E8F0" stroke-width="12" stroke-linecap="round" stroke-dasharray="16 22"/>
    <path d="M216 178L176 224L216 270" stroke="#67E8F9" stroke-width="18" stroke-linecap="round" stroke-linejoin="round"/>
    <path d="M268 178L308 224L268 270" stroke="#67E8F9" stroke-width="18" stroke-linecap="round" stroke-linejoin="round"/>
    <path d="M235 164L253 288" stroke="#FBBF24" stroke-width="18" stroke-linecap="round"/>
    <path d="M242 104L252 128L278 134L258 151L264 176L242 162L221 176L226 151L206 134L232 128L242 104Z" fill="#FBBF24"/>
  </g>
  <text x="456" y="150" fill="#0F172A" font-family="Inter, Arial, sans-serif" font-size="66" font-weight="850">ReelForge YAML</text>
  <text x="460" y="205" fill="#334155" font-family="Inter, Arial, sans-serif" font-size="28" font-weight="520">Schema-first AI workbench for adapting web novels into vertical short-drama scripts.</text>
  <text x="460" y="259" fill="#0E7490" font-family="Inter, Arial, sans-serif" font-size="24" font-weight="760">Novel chapters → Episodes → Shots → YAML → Video-ready prompts</text>
  <rect x="460" y="298" width="164" height="42" rx="21" fill="#0F172A"/>
  <text x="491" y="326" fill="#F8FAFC" font-family="Inter, Arial, sans-serif" font-size="18" font-weight="780">Schema-first</text>
  <rect x="640" y="298" width="152" height="42" rx="21" fill="#CCFBF1"/>
  <text x="670" y="326" fill="#115E59" font-family="Inter, Arial, sans-serif" font-size="18" font-weight="780">Source Map</text>
  <rect x="808" y="298" width="178" height="42" rx="21" fill="#FEF3C7"/>
  <text x="835" y="326" fill="#92400E" font-family="Inter, Arial, sans-serif" font-size="18" font-weight="780">DeepSeek-ready</text>
  <text x="992" y="325" fill="#F8FAFC" font-family="Inter, Arial, sans-serif" font-size="18" font-weight="760">Human-in-the-loop scripts</text>
</svg>
